<?xml version="1.0" standalone="no"?>
<!DOCTYPE svg PUBLIC "-//W3C//DTD SVG 20010904//EN"
"http://www.w3.org/TR/2001/REC-SVG-20010904/DTD/svg10.dtd">
<svg viewBox="0 0 288 17"
xmlns="http://www.w3.org/2000/svg" xmlns:xlink="http://www.w3.org/1999/xlink">
<desc>Created by Action Script Viewer - http://www.buraks.com/asv</desc>
<g>
<path fill="none" stroke="#000000" stroke-width="0.01" stroke-opacity="1"
d="M8.95,0 L271.05,0 L275.5,0 L275.5,4.2 L275.5,12.8 L275.5,17 L271.05,17 L8.95,17 L7.5,17 L7.5,12.8 L7.5,4.2 L7.5,0 
L8.95,0 M0,0 M275.5,4.2 L275.5,0 L288,0 L288,4.2 L288,12.8 L288,17 L275.5,17 L275.5,12.8 L275.5,4.2 M0,0 M0,4.2 L0,0 
L7.5,0 L7.5,4.2 L7.5,12.8 L7.5,17 L0,17 L0,12.8 L0,4.2 "/>
</g>
</svg>

